<svg width="209" height="209" viewBox="0 0 209 209" fill="none" xmlns="http://www.w3.org/2000/svg">
<circle cx="104.5" cy="104.5" r="104.5" fill="black"/>
<path fill-rule="evenodd" clip-rule="evenodd" d="M68.3104 129.284C61.4184 130.422 55.0732 130.482 48.6317 127.375C37.131 121.828 36.1069 109.136 37.466 93.7486C37.7272 91.0014 38.63 88.3538 40.1015 86.0192C41.6483 83.87 43.8941 82.3252 46.4544 81.6493C53.3003 79.9942 60.4201 79.8164 67.3401 81.1276C69.4072 81.5416 71.3409 82.4571 72.9711 83.7938C74.4023 85.0679 75.4558 86.7109 76.0166 88.5431C76.7287 90.8374 77.1523 93.2113 77.2776 95.6102C77.4675 98.3708 77.5625 101.558 77.5625 105.17V107.723H44.5967C44.5967 114.097 46.747 119.274 52.8458 121.879C59.6665 124.795 67.0147 123.428 73.7064 120.812C83.1049 117.137 91.8681 110.416 99.0353 104.566C110.7 94.1202 124.116 83.3221 139.89 80.7155C146.782 79.5778 153.129 79.5181 159.571 82.6252C171.072 88.1715 172.096 100.864 170.737 116.251C170.476 118.999 169.574 121.646 168.103 123.981C166.555 126.129 164.31 127.673 161.75 128.349C154.904 130.004 147.784 130.182 140.864 128.871C138.795 128.458 136.859 127.542 135.228 126.204C133.796 124.93 132.743 123.287 132.182 121.455C131.47 119.161 131.046 116.787 130.919 114.388C130.731 111.627 130.636 108.441 130.636 104.828V102.273H163.606C163.606 95.899 161.454 90.7224 155.357 88.1158C148.536 85.1992 141.188 86.5756 134.496 89.1822C125.098 92.8592 116.335 99.578 109.167 105.428C97.5029 115.878 84.0868 126.678 68.3104 129.284ZM138.069 108.728C138.013 111.332 138.207 113.936 138.647 116.504C138.886 118.112 139.563 119.624 140.603 120.874C141.607 121.896 142.911 122.571 144.326 122.799C146.273 123.146 148.249 123.304 150.226 123.272C152.614 123.321 155.001 123.127 157.349 122.695C158.898 122.429 160.311 121.645 161.355 120.471C162.363 119.1 162.979 117.48 163.138 115.786C163.478 113.144 163.631 110.482 163.594 107.819H138.148L138.069 108.728ZM70.1392 101.272C70.1957 98.6671 70.0023 96.0626 69.5617 93.4945C69.322 91.8859 68.6447 90.3742 67.6038 89.1245C66.6007 88.102 65.2967 87.4274 63.8825 87.1994C61.9354 86.8527 59.9595 86.694 57.982 86.7258C55.5943 86.6771 53.2078 86.8707 50.8591 87.3034C49.3102 87.5689 47.8976 88.3529 46.8529 89.5269C45.845 90.8983 45.2287 92.518 45.0702 94.2127C44.7301 96.8539 44.5776 99.516 44.614 102.179H70.0545L70.1392 101.272Z" fill="#00FFB3"/>
<path fill-rule="evenodd" clip-rule="evenodd" d="M126.797 129.081H126.689L126.77 129.188H117.935C105.867 113.017 93.4515 97.1101 81.4022 80.9179H81.51L81.4292 80.8101H90.2635C102.332 96.9811 114.747 112.888 126.797 129.081Z" fill="white"/>
</svg>
