<svg width="157" height="26" viewBox="0 0 157 26" fill="none" xmlns="http://www.w3.org/2000/svg">
<path d="M82.8245 25.6623C81.7669 25.6623 80.6391 25.6443 79.4409 25.6085C78.2427 25.5727 77.0594 25.5127 75.8911 25.4284C74.7254 25.3442 73.6742 25.2659 72.7374 25.1935V23.2112C73.7465 23.2835 74.8279 23.3555 75.9817 23.4272C77.1354 23.4988 78.2633 23.5588 79.3653 23.6073C80.4706 23.6557 81.4077 23.6799 82.1766 23.6799C83.5698 23.6799 84.6874 23.6497 85.5293 23.5893C86.3029 23.5432 87.0665 23.3919 87.7993 23.1396C88.3457 22.9649 88.8162 22.6088 89.1328 22.1304C89.435 21.6399 89.6378 21.0949 89.7299 20.5262C89.839 19.9019 89.8933 19.2692 89.8921 18.6354C89.9002 17.8837 89.8703 17.1321 89.8025 16.3834C89.7776 15.9091 89.6008 15.4555 89.298 15.0897C88.9291 14.7406 88.4651 14.5086 87.9645 14.4228C87.1145 14.2447 86.2533 14.1243 85.387 14.0626L77.8904 13.3421C76.7547 13.279 75.633 13.0607 74.5566 12.6933C73.8557 12.457 73.2409 12.0178 72.7902 11.4314C72.4042 10.8668 72.1573 10.2188 72.0697 9.54054C71.955 8.71063 71.9008 7.87351 71.9074 7.03574C71.8496 5.75971 72.0711 4.48641 72.5563 3.30483C72.9546 2.43922 73.6344 1.73411 74.485 1.30453C75.4814 0.83342 76.557 0.55228 77.6566 0.475551C78.9171 0.355467 80.3528 0.295456 81.9636 0.295456C83.0211 0.295456 84.0963 0.319361 85.189 0.367129C86.2817 0.414897 87.315 0.481193 88.2889 0.566114C89.2622 0.651035 90.0732 0.741297 90.7221 0.836833V2.74754C89.9532 2.62679 89.0701 2.53659 88.073 2.47688C87.0758 2.41717 86.0654 2.36542 85.0417 2.32163C84.0206 2.2858 83.0653 2.26787 82.1756 2.26787C80.5661 2.26787 79.2747 2.31599 78.3014 2.41219C77.4609 2.47386 76.6376 2.68126 75.8682 3.02518C75.5424 3.17049 75.2516 3.38405 75.0154 3.65135C74.7792 3.91865 74.603 4.23348 74.4989 4.57467C74.2704 5.35898 74.1611 6.17315 74.1745 6.98994C74.1522 7.78949 74.2311 8.58866 74.4093 9.36841C74.4796 9.64538 74.6117 9.90284 74.7958 10.1214C74.9799 10.34 75.2112 10.5139 75.4722 10.6303C76.289 10.9571 77.1527 11.1516 78.0307 11.2065L85.4198 11.8554C86.4109 11.9111 87.3979 12.0254 88.3755 12.1977C89.1136 12.3158 89.8226 12.5724 90.4653 12.954C91.0564 13.3531 91.4899 13.9457 91.6914 14.6298C91.839 14.9804 91.9417 15.3482 91.9969 15.7246C92.0573 16.1226 92.0994 16.5432 92.1233 16.9864C92.1472 17.4296 92.1591 17.9272 92.1591 18.4791C92.1982 19.7241 92.0276 20.9669 91.6546 22.1553C91.388 22.9884 90.8949 23.7309 90.2305 24.2999C89.6126 24.7947 88.8923 25.1456 88.1217 25.3269C87.2891 25.5242 86.4368 25.627 85.581 25.6334C84.6801 25.6527 83.7613 25.6623 82.8245 25.6623ZM105.472 25.6623C103.643 25.6823 101.813 25.5919 99.9941 25.3916C98.8022 25.2884 97.6434 24.9451 96.5876 24.3825C95.7535 23.8837 95.1074 23.1236 94.7495 22.22C94.3044 21.0424 94.0491 19.8015 93.9932 18.5438C93.8851 17.0418 93.831 15.1842 93.831 12.9709C93.831 10.7577 93.8851 8.90003 93.9932 7.39799C94.0491 6.1403 94.3044 4.89943 94.7495 3.72181C95.1073 2.81819 95.7534 2.05803 96.5876 1.55934C97.6436 0.997038 98.8022 0.653771 99.9941 0.5502C103.637 0.190298 107.308 0.190298 110.951 0.5502C112.136 0.652169 113.287 0.995621 114.334 1.55934C115.161 2.06262 115.8 2.82193 116.155 3.72181C116.6 4.89949 116.855 6.14032 116.911 7.39799C117.019 8.90003 117.073 10.7577 117.073 12.9709C117.073 15.1842 117.019 17.0418 116.911 18.5438C116.855 19.8015 116.6 21.0423 116.155 22.22C115.8 23.1199 115.161 23.8791 114.334 24.3825C113.287 24.9465 112.136 25.29 110.951 25.3916C109.132 25.592 107.302 25.6823 105.471 25.6623H105.472ZM105.472 23.6809C107.227 23.6809 108.668 23.6448 109.798 23.5725C110.738 23.5462 111.663 23.3316 112.519 22.9415C113.207 22.5897 113.745 22.0009 114.033 21.2836C114.41 20.2789 114.623 19.2201 114.664 18.1478C114.76 16.8143 114.808 15.0893 114.808 12.9729C114.808 10.8565 114.76 9.13155 114.664 7.79803C114.623 6.7257 114.41 5.66691 114.033 4.66225C113.745 3.94502 113.207 3.35612 112.519 3.00429C111.663 2.61417 110.738 2.39965 109.798 2.37338C108.67 2.30106 107.228 2.2649 105.472 2.2649C103.717 2.2649 102.269 2.30106 101.13 2.37338C100.191 2.39754 99.2668 2.60579 98.4088 2.98637C97.7211 3.33878 97.1836 3.92749 96.8951 4.64433C96.5068 5.65271 96.2876 6.71826 96.2463 7.79803C96.1501 9.13155 96.102 10.8565 96.102 12.9729C96.102 15.0893 96.1501 16.8143 96.2463 18.1478C96.2876 19.2276 96.5068 20.2931 96.8951 21.3014C97.1836 22.0183 97.7211 22.607 98.4088 22.9594C99.2668 23.34 100.191 23.5483 101.13 23.5725C102.271 23.6441 103.718 23.6799 105.471 23.6799L105.472 23.6809ZM120.047 25.3727V0.577108H137.487V2.55949H122.316V12.3987H135.904V14.3811H122.316V25.3737L120.047 25.3727ZM145.145 25.3727V2.59526H135.591V0.577108H157V2.59526H147.413V25.3737L145.145 25.3727Z" fill="black"/>
<path fill-rule="evenodd" clip-rule="evenodd" d="M16.1855 25.477C12.6228 26.0651 9.34269 26.096 6.01285 24.4898C0.0677197 21.6227 -0.461697 15.0616 0.240891 7.10718C0.37594 5.68702 0.842583 4.3184 1.60326 3.11157C2.40287 2.00052 3.56382 1.20199 4.88734 0.852576C8.42621 -0.0029806 12.1067 -0.0949135 15.6839 0.582889C16.7525 0.7969 17.7521 1.27016 18.5948 1.96115C19.3346 2.61978 19.8792 3.4691 20.1691 4.41627C20.5373 5.60223 20.7562 6.82939 20.821 8.06949C20.9192 9.49656 20.9683 11.1439 20.9683 13.0115V14.3311H3.927C3.927 17.6261 5.03858 20.3021 8.19127 21.6486C11.7172 23.1563 15.5157 22.4497 18.9749 21.0972C23.8333 19.1975 28.3633 15.7234 32.0684 12.699C38.0981 7.29927 45.0334 1.71733 53.1878 0.369873C56.7505 -0.218271 60.0316 -0.249117 63.3614 1.35708C69.3066 4.22416 69.836 10.7853 69.1334 18.7397C68.9988 20.1598 68.5325 21.5284 67.772 22.7353C66.972 23.8457 65.8112 24.6439 64.4879 24.9934C60.9491 25.8489 57.2685 25.9409 53.6914 25.263C52.6217 25.0497 51.621 24.5763 50.7775 23.8847C50.0377 23.2261 49.493 22.3768 49.2031 21.4297C48.8351 20.2436 48.6158 19.0165 48.5503 17.7764C48.4528 16.3493 48.404 14.702 48.404 12.8344V11.5138H65.4473C65.4473 8.21876 64.3347 5.54281 61.183 4.19535C57.6571 2.68767 53.8586 3.39918 50.3994 4.74663C45.541 6.6474 41.0109 10.1206 37.3059 13.1449C31.2762 18.5467 24.3409 24.1295 16.1855 25.477ZM52.2464 14.8506C52.2175 16.1969 52.3174 17.5428 52.5449 18.8701C52.6688 19.7014 53.0186 20.4829 53.556 21.1291C54.0751 21.6576 54.7494 22.0063 55.4807 22.1243C56.4872 22.3035 57.5086 22.3855 58.5309 22.3691C59.7652 22.394 60.9988 22.294 62.213 22.0705C63.0137 21.9333 63.7439 21.5279 64.2839 20.9211C64.8049 20.2121 65.1234 19.3749 65.2055 18.4989C65.3813 17.1335 65.4601 15.7574 65.4413 14.3809H52.2872L52.2464 14.8506ZM17.1309 10.9963C17.1601 9.6497 17.0601 8.30334 16.8323 6.9758C16.7084 6.14425 16.3583 5.36281 15.8202 4.71681C15.3017 4.18824 14.6276 3.83951 13.8966 3.72164C12.89 3.54239 11.8686 3.46038 10.8464 3.4768C9.61207 3.45164 8.37841 3.55172 7.16428 3.7754C6.36361 3.91266 5.63337 4.31793 5.09334 4.92478C4.57229 5.63374 4.25373 6.47103 4.17179 7.34704C3.99595 8.71241 3.91713 10.0885 3.93593 11.465H17.0871L17.1309 10.9963Z" fill="black"/>
<path fill-rule="evenodd" clip-rule="evenodd" d="M46.4192 25.3718H46.3635L46.4053 25.4275H41.8384C35.5997 17.0681 29.1819 8.84506 22.9531 0.474705H23.0089L22.9671 0.418945H27.5339C33.7726 8.77836 40.1904 17.0015 46.4192 25.3718Z" fill="#00FFB3"/>
</svg>
